<svg width="126" height="127" viewBox="0 0 126 127" fill="none" xmlns="http://www.w3.org/2000/svg">
<path fill-rule="evenodd" clip-rule="evenodd" d="M125.218 34.3802V116.204C125.218 121.988 120.537 126.694 114.783 126.694H10.4349C4.68108 126.694 0 121.988 0 116.204V34.3802C0 33.2221 0.934964 32.2821 2.08697 32.2821C3.23898 32.2821 4.17394 33.2221 4.17394 34.3802V116.204C4.17394 119.674 6.98301 122.498 10.4349 122.498H60.5222V117.565C57.9761 116.493 51.4564 114.106 43.8264 114.106C25.5821 114.106 11.1507 118.18 11.0067 118.22C10.8189 118.275 10.6269 118.302 10.4349 118.302C9.98616 118.302 9.54373 118.157 9.17642 117.878C8.65676 117.481 8.34789 116.86 8.34789 116.204V23.89C8.34789 22.9542 8.96563 22.1297 9.86095 21.8738C10.4703 21.6975 24.9685 17.5959 43.8264 17.5959C54.6307 17.5959 63.1831 21.8339 63.542 22.0122C64.2495 22.3689 64.6961 23.0948 64.6961 23.89V104.167C71.0552 100.529 85.929 92.4036 100.175 87.427V5.97691C84.8292 12.1808 70.1306 21.3744 69.9762 21.473C68.9974 22.0878 67.7097 21.7877 67.1003 20.8059C66.4889 19.824 66.7873 18.5295 67.764 17.9148C67.933 17.8099 84.8292 7.23993 101.527 0.943706C102.172 0.702432 102.89 0.792648 103.449 1.18498C104.013 1.57731 104.349 2.22141 104.349 2.90957V88.9292C104.349 89.8335 103.775 90.6328 102.921 90.9203C84.5683 97.0696 63.8906 109.486 63.684 109.61C63.0391 110 62.2335 110.01 61.5803 109.637C60.9271 109.266 60.5222 108.567 60.5222 107.812V25.2495C57.9615 24.1732 51.4355 21.7919 43.8264 21.7919C28.9985 21.7919 16.6895 24.4837 12.5218 25.5139V113.504C17.6099 112.293 29.4514 109.91 43.8264 109.91C52.8088 109.91 60.2342 112.838 62.6906 113.929C65.4537 112.912 74.386 109.91 83.4789 109.91C97.4658 109.91 107.967 112.169 112.697 113.415V25.5957C112.008 25.4572 111.115 25.2831 110.048 25.0859C108.915 24.8761 108.166 23.783 108.374 22.6416C108.583 21.5045 109.675 20.7492 110.804 20.959C113.6 21.4751 115.236 21.8423 115.236 21.8423C116.192 22.0542 116.87 22.906 116.87 23.89V116.204C116.87 116.877 116.549 117.511 116.004 117.905C115.455 118.3 114.754 118.405 114.126 118.195C114.003 118.153 101.659 114.106 83.4789 114.106C75.6653 114.106 67.739 116.6 64.6961 117.67V122.498H114.783C118.235 122.498 121.044 119.674 121.044 116.204V34.3802C121.044 33.2221 121.977 32.2821 123.131 32.2821C124.285 32.2821 125.218 33.2221 125.218 34.3802ZM50.5632 39.747C37.6761 36.7069 23.0318 40.5799 22.4162 40.7456C21.3038 41.0457 20.6422 42.1954 20.9407 43.3157C21.1911 44.2536 22.0343 44.8704 22.9546 44.8704C23.1341 44.8704 23.3157 44.8473 23.4972 44.799C23.6371 44.7592 37.7366 41.031 49.6115 43.8318C50.728 44.0941 51.8571 43.3955 52.1201 42.2667C52.383 41.1401 51.686 40.0113 50.5632 39.747ZM50.5632 52.3352C37.6761 49.2972 23.0318 53.1681 22.4162 53.3339C21.3038 53.6339 20.6422 54.7836 20.9407 55.904C21.1911 56.8418 22.0343 57.4586 22.9546 57.4586C23.1341 57.4586 23.3157 57.4355 23.4972 57.3873C23.6371 57.3474 37.7366 53.6192 49.6115 56.4201C50.728 56.6823 51.8571 55.9837 52.1201 54.8549C52.383 53.7283 51.686 52.5996 50.5632 52.3352ZM50.5632 64.9234C37.6761 61.8855 23.0318 65.7543 22.4162 65.9221C21.3038 66.2221 20.6422 67.3719 20.9407 68.4922C21.1911 69.43 22.0343 70.049 22.9546 70.049C23.1341 70.049 23.3157 70.0238 23.4972 69.9755C23.6371 69.9357 37.7366 66.2075 49.6115 69.0083C50.728 69.2706 51.8571 68.5719 52.1201 67.4432C52.383 66.3165 51.686 65.1878 50.5632 64.9234ZM50.5632 77.5117C37.6761 74.4716 23.0318 78.3425 22.4162 78.5104C21.3038 78.8104 20.6422 79.9601 20.9407 81.0805C21.1911 82.0183 22.0343 82.6372 22.9546 82.6372C23.1341 82.6372 23.3157 82.612 23.4972 82.5638C23.6371 82.5239 37.7366 78.7957 49.6115 81.5966C50.728 81.8588 51.8571 81.1602 52.1201 80.0314C52.383 78.9048 51.686 77.776 50.5632 77.5117ZM50.5632 90.0999C37.6761 87.0599 23.0318 90.9329 22.4162 91.0986C21.3038 91.3986 20.6422 92.5483 20.9407 93.6687C21.1911 94.6065 22.0343 95.2254 22.9546 95.2254C23.1341 95.2254 23.3157 95.2003 23.4972 95.152C23.6371 95.1122 37.7366 91.3839 49.6115 94.1848C50.728 94.445 51.8571 93.7484 52.1201 92.6197C52.383 91.493 51.686 90.3643 50.5632 90.0999ZM71.1825 85.6857C71.5518 86.4116 72.2865 86.8312 73.0461 86.8312C73.3633 86.8312 73.6889 86.7578 73.9915 86.6025C74.1147 86.5396 86.3986 80.2664 92.4571 78.3425C93.5548 77.9921 94.1642 76.813 93.8157 75.7095C93.4692 74.6059 92.3047 73.9912 91.1965 74.3394C84.8146 76.3683 72.6141 82.5994 72.0965 82.8638C71.0698 83.3883 70.6607 84.6513 71.1825 85.6857ZM71.1825 73.0974C71.5518 73.8233 72.2865 74.2429 73.0461 74.2429C73.3633 74.2429 73.6889 74.1695 73.9915 74.0143C74.1147 73.9513 86.3986 67.6782 92.4571 65.7543C93.5548 65.4039 94.1642 64.2248 93.8157 63.1212C93.4692 62.0177 92.3047 61.4029 91.1965 61.7512C84.8146 63.78 72.6141 70.0112 72.0965 70.2756C71.0698 70.8001 70.6607 72.0631 71.1825 73.0974ZM71.1825 60.5092C71.5518 61.2351 72.2865 61.6547 73.0461 61.6547C73.3633 61.6547 73.6889 61.5813 73.9915 61.426C74.1147 61.3631 86.3986 55.0899 92.4571 53.166C93.5548 52.8157 94.1642 51.6366 93.8157 50.533C93.4692 49.4294 92.3047 48.8147 91.1965 49.163C84.8146 51.1918 72.6141 57.423 72.0965 57.6873C71.0698 58.2118 70.6607 59.4748 71.1825 60.5092ZM71.1825 47.9209C71.5518 48.6469 72.2865 49.0665 73.0461 49.0665C73.3633 49.0665 73.6889 48.993 73.9915 48.8378C74.1147 48.7748 86.3986 42.5017 92.4571 40.5778C93.5548 40.2274 94.1642 39.0483 93.8157 37.9447C93.4692 36.8412 92.3047 36.2265 91.1965 36.5747C84.8146 38.6035 72.6141 44.8347 72.0965 45.0991C71.0698 45.6236 70.6607 46.8866 71.1825 47.9209ZM73.0461 36.4782C73.3633 36.4782 73.6889 36.4048 73.9915 36.2495C74.1147 36.1866 86.3986 29.9134 92.4571 27.9895C93.5548 27.6392 94.1642 26.4601 93.8157 25.3565C93.4692 24.2529 92.3047 23.6382 91.1965 23.9865C84.8146 26.0153 72.6141 32.2465 72.0965 32.5108C71.0698 33.0353 70.6607 34.2984 71.1825 35.3327C71.5518 36.0586 72.2865 36.4782 73.0461 36.4782Z" fill="url(#paint0_linear_5969_476)"/>
<defs>
<linearGradient id="paint0_linear_5969_476" x1="0" y1="0.810547" x2="125.225" y2="126.664" gradientUnits="userSpaceOnUse">
<stop stop-color="#462964"/>
<stop offset="0.0001" stop-color="#462964"/>
<stop offset="0.53125" stop-color="#9C54D5"/>
<stop offset="1" stop-color="#5EE2F0"/>
</linearGradient>
</defs>
</svg>
