<svg width="126" height="127" viewBox="0 0 126 127" fill="none" xmlns="http://www.w3.org/2000/svg">
<path d="M30.9972 0.895786C30.5503 1.03764 30.2027 1.27879 29.9686 1.60505C29.5076 2.24339 29.5218 2.05898 29.5005 5.811L29.4792 9.23676H23.7832C17.4701 9.23676 17.4843 9.23676 16.094 9.69778C12.4409 10.9177 9.45458 14.2584 8.70269 17.9607C8.56791 18.6203 8.56082 18.9324 8.56082 24.408V30.153L5.14181 30.1743C1.33266 30.1956 1.48872 30.1814 0.857406 30.6921C0.169348 31.2595 -0.0576401 32.3872 0.346683 33.1816C0.453083 33.3731 0.665885 33.6568 0.829033 33.8057C1.4036 34.3235 1.26173 34.3022 5.08506 34.3448L8.52535 34.3802V42.7496L5.08506 42.7851C1.26173 42.8276 1.4036 42.8063 0.829033 43.3241C0.360869 43.7497 0.162255 44.2036 0.155161 44.8419C0.155161 45.7285 0.552391 46.3527 1.3965 46.7711C1.71571 46.9343 1.75117 46.9343 5.14181 46.9555L8.56082 46.9768V55.332L5.14181 55.3533C1.33266 55.3745 1.48872 55.3603 0.857406 55.871C0.169348 56.4384 -0.0576401 57.5662 0.346683 58.3605C0.453083 58.552 0.665885 58.8358 0.829033 58.9847C1.4036 59.5025 1.26173 59.4812 5.08506 59.5237L8.52535 59.5592V67.9285L5.08506 67.964C1.26173 68.0066 1.4036 67.9853 0.829033 68.5031C0.360869 68.9286 0.162255 69.3825 0.155161 70.0209C0.155161 70.9075 0.552391 71.5316 1.3965 71.9501C1.71571 72.1132 1.75117 72.1132 5.13472 72.1345L8.56082 72.1558V80.5109L5.14181 80.5322C1.33266 80.5535 1.48872 80.5393 0.857406 81.05C0.169348 81.6174 -0.0576401 82.7451 0.346683 83.5395C0.453083 83.731 0.665885 84.0147 0.829033 84.1637C1.4036 84.6814 1.26173 84.6601 5.08506 84.7027L8.52535 84.7382V93.1075L5.08506 93.143C1.26173 93.1855 1.4036 93.1642 0.829033 93.682C0.360869 94.1076 0.162255 94.5615 0.155161 95.1999C0.155161 96.0864 0.552391 96.7106 1.3965 97.1291C1.71571 97.2922 1.75117 97.2922 5.13472 97.3135L8.56082 97.3347V98.6256C8.56082 99.8384 8.575 99.9377 8.73106 100.278C8.93677 100.725 9.29144 101.087 9.73832 101.307C10.1639 101.512 10.9868 101.534 11.4124 101.356C11.7599 101.2 12.299 100.697 12.4835 100.342L12.6395 100.058L12.7104 18.9182L12.8736 18.3863C13.2424 17.2018 13.9092 16.145 14.881 15.2301C15.7535 14.4073 16.6969 13.8541 17.7538 13.5491L18.3142 13.386H107.833L108.4 13.5491C109.585 13.8895 110.656 14.5633 111.592 15.5563C112.415 16.4287 112.968 17.372 113.273 18.4288L113.436 18.9892V108.499L113.273 109.066C112.933 110.25 112.259 111.321 111.266 112.258C110.393 113.08 109.45 113.634 108.393 113.939L107.833 114.102H18.3142L17.7467 113.939C16.5622 113.598 15.4911 112.924 14.5547 111.931C13.3985 110.704 12.831 109.47 12.6821 107.839C12.6324 107.272 12.5757 107.045 12.4409 106.811C11.5613 105.328 9.46168 105.399 8.73106 106.938C8.40476 107.619 8.53244 109.25 9.02189 110.719C10.242 114.371 13.5829 117.357 17.2857 118.109C17.9454 118.244 18.2575 118.251 23.7336 118.251H29.4792L29.5005 121.67C29.5218 125.478 29.5076 125.322 30.0183 125.954C30.5858 126.642 31.7136 126.869 32.5081 126.464C32.6996 126.358 32.9833 126.145 33.1323 125.982C33.6501 125.408 33.6288 125.549 33.6714 121.726L33.7069 118.286H42.077L42.1125 121.726C42.1551 125.549 42.1338 125.408 42.6516 125.982C43.0772 126.45 43.5312 126.649 44.1696 126.656C45.0563 126.656 45.6805 126.259 46.099 125.415C46.2621 125.095 46.2621 125.06 46.2834 121.67L46.3047 118.251H54.6607L54.682 121.67C54.7033 125.478 54.6891 125.322 55.1998 125.954C55.7673 126.642 56.8951 126.869 57.6896 126.464C57.8811 126.358 58.1648 126.145 58.3138 125.982C58.8316 125.408 58.8103 125.549 58.8529 121.726L58.8884 118.286H67.2586L67.294 121.726C67.3366 125.549 67.3153 125.408 67.8331 125.982C68.2587 126.45 68.7127 126.649 69.3511 126.656C70.2378 126.656 70.862 126.259 71.2805 125.415C71.4436 125.095 71.4436 125.06 71.4649 121.67L71.4862 118.251H79.8422L79.8635 121.67C79.8848 125.478 79.8706 125.322 80.3813 125.954C80.9488 126.642 82.0766 126.869 82.8711 126.464C83.0626 126.358 83.3463 126.145 83.4953 125.982C84.0131 125.408 83.9918 125.549 84.0344 121.726L84.0699 118.286H92.4401L92.4755 121.726C92.5181 125.549 92.4968 125.408 93.0146 125.982C93.4402 126.45 93.8942 126.649 94.5326 126.656C95.4193 126.656 96.0435 126.259 96.462 125.415C96.6252 125.095 96.6252 125.06 96.6464 121.677L96.6677 118.251H102.364C108.677 118.251 108.663 118.251 110.053 117.79C113.706 116.57 116.692 113.229 117.444 109.527C117.579 108.867 117.586 108.555 117.586 103.08V97.3347L121.012 97.3135C124.814 97.2922 124.658 97.3064 125.289 96.7957C125.978 96.2283 126.205 95.1005 125.8 94.3062C125.694 94.1147 125.481 93.831 125.318 93.682C124.743 93.1642 124.885 93.1855 121.062 93.143L117.622 93.1075V84.7382L121.062 84.7027C124.885 84.6601 124.743 84.6814 125.318 84.1637C125.786 83.7381 125.985 83.2842 125.992 82.6458C125.992 81.7592 125.595 81.1351 124.75 80.7166C124.431 80.5535 124.396 80.5535 121.012 80.5322L117.586 80.5109V72.1558L121.012 72.1345C124.814 72.1132 124.658 72.1274 125.289 71.6167C125.978 71.0493 126.205 69.9216 125.8 69.1272C125.694 68.9357 125.481 68.652 125.318 68.5031C124.743 67.9853 124.885 68.0066 121.062 67.964L117.622 67.9285V59.5592L121.062 59.5237C124.885 59.4812 124.743 59.5025 125.318 58.9847C125.786 58.5591 125.985 58.1052 125.992 57.4669C125.992 56.5803 125.595 55.9561 124.75 55.5377C124.431 55.3745 124.396 55.3745 121.012 55.3533L117.586 55.332V46.9768L121.012 46.9555C124.814 46.9343 124.658 46.9484 125.289 46.4378C125.978 45.8704 126.205 44.7426 125.8 43.9482C125.694 43.7567 125.481 43.473 125.318 43.3241C124.743 42.8063 124.885 42.8276 121.062 42.7851L117.622 42.7496V34.3802L121.062 34.3448C124.885 34.3022 124.743 34.3235 125.318 33.8057C125.786 33.3802 125.985 32.9262 125.992 32.2879C125.992 31.4013 125.595 30.7772 124.75 30.3587C124.431 30.1956 124.396 30.1956 121.012 30.1743L117.586 30.153V24.4576C117.586 18.1451 117.586 18.1593 117.125 16.7692C115.905 13.1164 112.564 10.1304 108.861 9.37861C108.202 9.24385 107.889 9.23676 102.413 9.23676H96.6677L96.6464 5.811C96.6252 2.00933 96.6393 2.16537 96.1286 1.53413C95.5611 0.846137 94.4333 0.619172 93.6388 1.02345C93.4473 1.12984 93.1636 1.34262 93.0146 1.50575C92.4968 2.08026 92.5181 1.93841 92.4755 5.76135L92.4401 9.20129H84.0699L84.0344 5.76135C83.9918 1.93841 84.0131 2.08026 83.4953 1.50575C83.0697 1.03764 82.6157 0.839044 81.9773 0.831952C81.0906 0.831952 80.4664 1.22914 80.0479 2.07317C79.8848 2.39234 79.8848 2.4278 79.8635 5.811L79.8422 9.23676H71.4862L71.4649 5.811C71.4436 2.00933 71.4578 2.16537 70.9471 1.53413C70.3796 0.846137 69.2518 0.619172 68.4573 1.02345C68.2658 1.12984 67.9821 1.34262 67.8331 1.50575C67.3153 2.08026 67.3366 1.93841 67.294 5.76135L67.2586 9.20129H58.8884L58.8529 5.76135C58.8103 1.93841 58.8316 2.08026 58.3138 1.50575C57.8882 1.03764 57.4342 0.839044 56.7958 0.831952C55.9091 0.831952 55.2849 1.22914 54.8664 2.07317C54.7033 2.39234 54.7033 2.4278 54.682 5.811L54.6607 9.23676H46.3047L46.2834 5.811C46.2621 2.00933 46.2763 2.16537 45.7656 1.53413C45.1981 0.846137 44.0703 0.619172 43.2758 1.02345C43.0843 1.12984 42.8006 1.34262 42.6516 1.50575C42.1338 2.08026 42.1551 1.93841 42.1125 5.76135L42.077 9.20129H33.7069L33.6714 5.76135C33.6288 1.93841 33.6501 2.08026 33.1323 1.50575C32.6074 0.924156 31.6994 0.661728 30.9972 0.895786Z" fill="url(#paint0_linear_5969_475)"/>
<path d="M22.6199 21.8901C21.7545 22.1738 21.1941 22.9398 21.187 23.8547C21.187 24.6491 21.6268 25.3726 22.3503 25.7414C22.8823 26.018 23.62 26.018 24.1804 25.7414C24.9252 25.3726 25.3296 24.7271 25.3296 23.8831C25.3366 23.0462 24.9181 22.3865 24.145 21.9964C23.769 21.7979 23.0455 21.7553 22.6199 21.8901Z" fill="url(#paint1_linear_5969_475)"/>
<path d="M102.264 21.9255C101.775 22.0958 101.2 22.6844 101.03 23.1809C100.69 24.1881 101.137 25.2662 102.108 25.7414C102.931 26.1457 103.981 25.9329 104.57 25.252C105.705 23.9257 104.853 21.9113 103.116 21.812C102.782 21.7908 102.548 21.8262 102.264 21.9255Z" fill="url(#paint2_linear_5969_475)"/>
<path d="M35.3029 30.2027C33.714 30.4509 32.65 30.9687 31.5221 32.068C30.6071 32.9546 29.9474 34.0682 29.6424 35.2456C29.5289 35.6924 29.5218 36.4017 29.5218 44.9128V54.0979L29.7204 54.722C30.5574 57.403 32.8131 59.2826 35.466 59.5166C36.3456 59.5947 36.7499 59.772 37.2465 60.3039C38.0977 61.2118 38.0977 62.0913 37.2465 62.9991C36.7712 63.5098 36.3172 63.7084 35.466 63.7793C34.6219 63.8574 34.1041 63.9921 33.4231 64.3042C31.969 64.978 30.8341 66.0986 30.1247 67.5739C29.465 68.9357 29.5218 67.7867 29.5218 80.4471C29.5218 89.5186 29.5431 91.7032 29.614 92.0791C30.1034 94.4409 32.1605 96.5474 34.5723 97.1716C34.9908 97.278 35.4235 97.2922 37.8565 97.2922C40.8925 97.2922 41.0485 97.278 42.0558 96.8879C43.588 96.3063 45.1343 94.7956 45.8011 93.2281C46.0636 92.611 46.2054 92.0152 46.2693 91.2634C46.2976 90.9088 46.3757 90.5541 46.4821 90.3201C46.6807 89.8732 47.2269 89.32 47.695 89.0931L48.0355 88.9228H52.5753C57.1009 88.9228 57.115 88.9228 57.4555 89.0789C57.8882 89.2775 58.4912 89.8874 58.6969 90.3272C58.8104 90.5612 58.8813 90.9017 58.9239 91.3911C59.0657 92.9727 59.7467 94.3487 60.9738 95.4977C61.5981 96.0935 61.974 96.3489 62.7826 96.7319C64.0524 97.3276 63.1019 97.2851 74.4016 97.3276L84.46 97.3631L84.7012 97.8738C85.9284 100.427 88.6451 101.881 91.3193 101.413C93.8658 100.973 95.8023 99.2001 96.4549 96.7248C96.6677 95.9162 96.6677 94.6182 96.462 93.76C95.7669 90.9372 93.27 88.9583 90.4043 88.9583C88.7302 88.9583 87.3328 89.4973 86.1199 90.618C85.5524 91.1428 84.8643 92.1003 84.6019 92.7529L84.4458 93.143L64.7759 93.1075L64.4638 92.9444C64.024 92.7032 63.5204 92.2138 63.2934 91.7883C63.1302 91.4975 63.0806 91.2918 63.038 90.7456C62.9671 89.8307 62.811 89.2704 62.428 88.4902C61.6477 86.9014 60.229 85.646 58.5124 85.029L57.8953 84.8091L52.7881 84.7878C47.1347 84.7665 47.2127 84.7594 46.1487 85.2276C44.354 86.0077 42.8999 87.632 42.3324 89.4832C42.2473 89.7527 42.1551 90.3059 42.1196 90.7102C42.07 91.2279 42.0061 91.5329 41.8997 91.7457C41.6657 92.1996 41.084 92.7529 40.6158 92.9657L40.1973 93.1501L37.8069 93.1288C35.4519 93.1075 35.4022 93.1075 35.0901 92.9444C34.6148 92.6961 34.0616 92.1216 33.8558 91.6535L33.6714 91.2421L33.7069 69.6308L33.9197 69.2549C34.1609 68.8151 34.6716 68.3257 35.1185 68.113C35.3242 68.0066 35.6717 67.9356 36.1612 67.8931C37.4167 67.7867 38.5233 67.3328 39.5235 66.5384C41.9281 64.6163 42.6942 61.7367 41.4741 59.1833C41.1195 58.4457 40.8641 58.0697 40.2824 57.4598C39.7079 56.8427 39.112 56.3959 38.4169 56.0412C37.6153 55.6441 37.0975 55.488 36.1612 55.3816C35.693 55.3249 35.1965 55.2256 35.0475 55.1547C34.6929 54.9844 34.0899 54.3887 33.8771 53.9844L33.7069 53.6723V36.0825L33.87 35.7633C34.1183 35.2881 34.6929 34.7349 35.161 34.5292L35.5724 34.3448L90.7377 34.3802L91.0569 34.5434C91.5321 34.7916 92.0854 35.3661 92.2911 35.8342L92.4756 36.2456L92.4401 70.411L92.2769 70.7443C92.0641 71.177 91.5037 71.7373 91.0781 71.943L90.7377 72.1132L83.6868 72.1558L83.4386 71.6096C82.8215 70.2762 81.6652 69.1414 80.2962 68.5172L79.8493 68.3186V54.949L80.2607 54.7858C81.2254 54.417 82.5377 53.2822 83.0981 52.3389C83.474 51.7076 83.8003 50.8849 83.9351 50.2323C84.0912 49.4593 84.0415 48.1613 83.8216 47.4095C83.1619 45.0689 81.3177 43.3737 78.9272 42.8843C78.1469 42.7283 76.863 42.778 76.0898 42.9978C74.8769 43.3383 73.6213 44.1752 72.8694 45.1327C72.3942 45.7356 71.8267 46.8633 71.6494 47.5726C71.5501 47.9485 71.5217 48.3244 71.5217 49.0975C71.5288 50.0054 71.5501 50.204 71.7132 50.7501C72.2736 52.58 73.4866 53.9773 75.189 54.7362L75.6571 54.949L75.6642 61.6303V68.3186L75.1961 68.5314C74.5009 68.8435 73.8412 69.3116 73.3092 69.8577C72.7772 70.411 72.1814 71.2976 71.9969 71.8082L71.8764 72.1487L56.3348 72.1132L56.051 71.9572C55.6041 71.716 55.2211 71.3472 54.9516 70.9004L54.7033 70.489L54.6607 63.3751L55.3204 63.0559C56.9235 62.2828 58.1578 60.8075 58.6401 59.0982C58.86 58.3393 58.9026 57.1193 58.7465 56.2966C58.2996 53.9134 56.5192 52.0055 54.1358 51.3601C53.3981 51.1544 51.9014 51.1402 51.1708 51.3175C48.9293 51.8708 47.2127 53.5092 46.5317 55.7434C46.3686 56.2895 46.3473 56.4881 46.3402 57.3959C46.3331 58.6088 46.4324 59.0698 46.9077 60.0912C47.5319 61.4175 48.5321 62.4246 49.8798 63.0843L50.4473 63.3538L50.4898 67.1342C50.5324 71.411 50.5182 71.2905 51.1211 72.5388C51.795 73.9219 52.8945 75.0212 54.2777 75.695C55.6112 76.3404 54.8593 76.2908 63.8892 76.3192L71.8693 76.3404L72.0324 76.7447C72.2949 77.3902 72.9191 78.2555 73.522 78.8229C75.6784 80.8514 78.9485 81.0713 81.3744 79.3477C82.2469 78.7236 83.0272 77.7732 83.467 76.7873L83.6727 76.3334H87.1697C89.2126 76.3334 90.8583 76.305 91.1278 76.2624C93.6034 75.8723 95.7314 73.9289 96.462 71.3898L96.6252 70.8365V53.3531C96.6252 39.0047 96.611 35.7846 96.533 35.4087C96.0435 33.0681 94.0361 30.99 91.6102 30.3232C91.1916 30.2027 89.5034 30.1956 63.3217 30.1885C48.0071 30.1814 35.4022 30.1885 35.3029 30.2027ZM78.6434 47.147C79.1258 47.3953 79.4166 47.6861 79.6436 48.14C79.8493 48.5656 79.8635 48.6436 79.8351 49.1472C79.7997 49.7784 79.6507 50.126 79.2393 50.5302C78.686 51.0906 77.8986 51.2821 77.1184 51.048C76.5864 50.892 75.9622 50.3033 75.7848 49.7784C75.3947 48.6365 76.0118 47.4095 77.1538 47.0336C77.4518 46.9343 78.3668 47.0052 78.6434 47.147ZM53.2491 55.4525C53.54 55.5377 53.7244 55.6582 54.0294 55.9632C54.4976 56.4384 54.6678 56.8427 54.6678 57.5094C54.6678 57.8712 54.6253 58.0343 54.4337 58.396C53.4761 60.2614 50.6672 59.7223 50.4969 57.6442C50.4544 57.0342 50.6175 56.5164 50.9864 56.0909C51.5751 55.4171 52.3767 55.1901 53.2491 55.4525ZM78.6434 72.326C79.1258 72.5742 79.4166 72.865 79.6436 73.319C79.8493 73.7445 79.8635 73.8226 79.8351 74.3261C79.7997 74.9574 79.6507 75.3049 79.2393 75.7092C78.686 76.2695 77.8986 76.461 77.1184 76.227C76.5864 76.0709 75.9622 75.4822 75.7848 74.9574C75.3947 73.8155 76.0118 72.5884 77.1538 72.2125C77.4518 72.1132 78.3668 72.1842 78.6434 72.326ZM91.1207 93.2635C91.5321 93.4125 92.0145 93.8593 92.2486 94.3133C92.5181 94.831 92.5181 95.5758 92.2415 96.1361C91.6669 97.2993 90.2057 97.6752 89.1275 96.9305C88.5529 96.5333 88.1557 95.6538 88.255 95.0012C88.4607 93.5756 89.7801 92.7883 91.1207 93.2635Z" fill="url(#paint3_linear_5969_475)"/>
<path d="M22.6554 101.612C22.0666 101.775 21.414 102.434 21.2509 103.023C21.1374 103.442 21.2083 104.179 21.3856 104.534C21.6126 104.981 22.1943 105.463 22.6624 105.598C23.6555 105.889 24.6841 105.442 25.138 104.505C25.4998 103.761 25.3721 102.846 24.8117 102.2C24.3294 101.661 23.3931 101.399 22.6554 101.612Z" fill="url(#paint4_linear_5969_475)"/>
<path d="M102.513 101.576C101.867 101.746 101.229 102.314 101.03 102.91C100.697 103.895 101.136 104.974 102.08 105.47C102.576 105.732 103.421 105.74 103.896 105.491C104.328 105.264 104.655 104.952 104.875 104.527C105.031 104.236 105.066 104.08 105.066 103.64C105.066 102.775 104.669 102.115 103.931 101.761C103.527 101.555 102.889 101.477 102.513 101.576Z" fill="url(#paint5_linear_5969_475)"/>
<defs>
<linearGradient id="paint0_linear_5969_475" x1="0.146484" y1="0.810547" x2="125.751" y2="126.913" gradientUnits="userSpaceOnUse">
<stop stop-color="#462964"/>
<stop offset="0.548611" stop-color="#9C54D5"/>
<stop offset="1" stop-color="#5EE2F0"/>
</linearGradient>
<linearGradient id="paint1_linear_5969_475" x1="0.146484" y1="0.810547" x2="125.751" y2="126.913" gradientUnits="userSpaceOnUse">
<stop stop-color="#462964"/>
<stop offset="0.548611" stop-color="#9C54D5"/>
<stop offset="1" stop-color="#5EE2F0"/>
</linearGradient>
<linearGradient id="paint2_linear_5969_475" x1="0.146484" y1="0.810547" x2="125.751" y2="126.913" gradientUnits="userSpaceOnUse">
<stop stop-color="#462964"/>
<stop offset="0.548611" stop-color="#9C54D5"/>
<stop offset="1" stop-color="#5EE2F0"/>
</linearGradient>
<linearGradient id="paint3_linear_5969_475" x1="0.146484" y1="0.810547" x2="125.751" y2="126.913" gradientUnits="userSpaceOnUse">
<stop stop-color="#462964"/>
<stop offset="0.548611" stop-color="#9C54D5"/>
<stop offset="1" stop-color="#5EE2F0"/>
</linearGradient>
<linearGradient id="paint4_linear_5969_475" x1="0.146484" y1="0.810547" x2="125.751" y2="126.913" gradientUnits="userSpaceOnUse">
<stop stop-color="#462964"/>
<stop offset="0.548611" stop-color="#9C54D5"/>
<stop offset="1" stop-color="#5EE2F0"/>
</linearGradient>
<linearGradient id="paint5_linear_5969_475" x1="0.146484" y1="0.810547" x2="125.751" y2="126.913" gradientUnits="userSpaceOnUse">
<stop stop-color="#462964"/>
<stop offset="0.548611" stop-color="#9C54D5"/>
<stop offset="1" stop-color="#5EE2F0"/>
</linearGradient>
</defs>
</svg>
