<svg width="127" height="127" viewBox="0 0 127 127" fill="none" xmlns="http://www.w3.org/2000/svg">
<path d="M10.2159 0.859132C8.41937 1.04827 6.40391 1.91932 4.81146 3.19851C4.30386 3.60666 3.45787 4.45283 3.0498 4.96052C1.74598 6.58814 0.899983 8.56914 0.705903 10.4556C0.631256 11.2072 0.636233 65.904 0.710879 66.2673C0.89003 67.1185 1.5718 67.7705 2.43272 67.9148C3.3235 68.0691 4.24912 67.5714 4.65221 66.7203L4.81146 66.3818L4.86122 10.585L4.99558 10.1022C5.329 8.9325 5.91622 7.94697 6.85179 7.00624C7.1255 6.7275 7.55347 6.35917 7.79731 6.18496C8.38951 5.76686 9.3201 5.31889 9.93718 5.14966L10.4348 5.01029L17.3272 4.98541C22.6022 4.9655 24.2593 4.94559 24.3987 4.89581C24.6774 4.80124 25.1551 4.47273 25.3243 4.2587C25.5532 3.96504 25.7274 3.59173 25.7921 3.23336C25.9862 2.1881 25.2198 1.08312 24.1548 0.859132C23.8314 0.794426 10.8628 0.794426 10.2159 0.859132Z" fill="url(#paint0_linear_5969_477)"/>
<path d="M94.5825 0.880295C93.4628 1.15405 92.7561 2.30383 93.0348 3.39887C93.199 4.03597 93.6021 4.51878 94.2092 4.81245L94.5327 4.96675L116.728 5.01652L117.215 5.15092C119.494 5.77807 121.44 7.68939 122.162 9.99394L122.301 10.4419V87.6914L122.162 88.1343C121.774 89.3737 121.221 90.2647 120.256 91.2104C119.276 92.171 118.007 92.8679 116.867 93.067C116.489 93.1317 110.184 93.1416 63.5793 93.1416C16.5321 93.1416 10.6699 93.1317 10.3166 93.067C9.76421 92.9624 9.36609 92.828 8.78883 92.5443C7.1466 91.7479 5.67358 90.0954 5.11125 88.4081C4.83257 87.5669 4.83257 87.6217 4.83257 81.7633V76.3677H60.4093C97.1702 76.3677 116.101 76.3478 116.329 76.318C117.474 76.1537 118.29 75.0587 118.101 73.9437C117.982 73.2369 117.589 72.7093 116.961 72.4007L116.583 72.2116H2.17018L1.88652 72.351C1.28437 72.6496 0.836492 73.217 0.702128 73.8492C0.667293 74.0333 0.652364 76.1189 0.667293 80.9519C0.677246 87.099 0.687199 87.8357 0.766822 88.2389C1.05048 89.7669 1.55807 91.0262 2.419 92.3203C4.18065 94.9733 7.08689 96.8697 9.99312 97.248C10.4957 97.3127 16.7412 97.3226 63.5793 97.3226C110.592 97.3226 116.663 97.3127 117.17 97.248C121.694 96.6557 125.755 92.6439 126.427 88.0995C126.496 87.6316 126.506 83.6845 126.506 49.0865C126.506 15.7478 126.496 10.5215 126.432 10.0835C125.775 5.43961 121.53 1.33324 116.907 0.865363C116.125 0.780747 94.9159 0.800656 94.5825 0.880295Z" fill="url(#paint1_linear_5969_477)"/>
<path d="M62.9821 80.6035C61.4195 80.8225 60.0759 81.9873 59.5732 83.5601C59.404 84.0927 59.3792 85.1031 59.5185 85.7004C59.8569 87.1239 60.8721 88.2289 62.3053 88.7267C62.6835 88.861 62.8179 88.881 63.43 88.9009C64.2013 88.9208 64.5198 88.871 65.1668 88.6221C66.0625 88.2737 66.8936 87.5022 67.3514 86.5864C67.4261 86.447 67.5455 86.1334 67.6152 85.8895C67.7296 85.5112 67.7495 85.3619 67.7545 84.7796C67.7545 83.9682 67.6798 83.6248 67.3365 82.913C66.5402 81.2655 64.8035 80.3447 62.9821 80.6035Z" fill="url(#paint2_linear_5969_477)"/>
<path d="M52.4819 101.638C51.8797 101.857 51.4617 102.225 51.1979 102.788L51.0387 103.121V112.529L51.1979 112.867C51.4119 113.315 51.7752 113.693 52.1982 113.902C52.4868 114.042 52.5963 114.072 52.9845 114.087C53.4821 114.111 53.7907 114.037 54.1788 113.813C54.4426 113.663 54.8059 113.28 54.9502 112.996C55.194 112.514 55.194 112.573 55.194 107.85C55.194 103.017 55.199 103.121 54.9104 102.589C54.7312 102.255 54.358 101.927 53.9599 101.738C53.6762 101.608 53.5568 101.578 53.1786 101.568C52.8451 101.553 52.666 101.573 52.4819 101.638Z" fill="url(#paint3_linear_5969_477)"/>
<path d="M73.4028 101.663C72.9798 101.812 72.6016 102.101 72.3578 102.469C71.9945 103.012 72.0094 102.743 72.0244 107.929L72.0393 112.578L72.1985 112.912C72.4026 113.34 72.741 113.683 73.1839 113.902C73.5123 114.062 73.5571 114.072 74.0796 114.072C74.5922 114.072 74.6469 114.062 74.9604 113.912C75.5925 113.614 76.0453 112.996 76.1448 112.295C76.2046 111.896 76.2046 103.833 76.1498 103.385C76.0553 102.673 75.6124 102.056 74.9654 101.748C74.6768 101.608 74.5623 101.583 74.1792 101.568C73.8109 101.553 73.6716 101.568 73.4028 101.663Z" fill="url(#paint4_linear_5969_477)"/>
<path d="M104.461 114.201C100.853 114.679 97.9167 117.501 97.2897 121.095C97.1653 121.807 97.1006 124.231 97.1852 124.838C97.2947 125.584 97.7077 126.172 98.3646 126.495L98.7129 126.664H116.583L116.962 126.475C117.579 126.172 117.962 125.664 118.096 124.962C118.181 124.534 118.131 121.752 118.031 121.189C117.394 117.665 114.906 115.072 111.403 114.291C110.92 114.181 110.811 114.176 107.845 114.166C106.163 114.161 104.64 114.176 104.461 114.201ZM110.577 118.402C112.418 118.79 113.742 120.273 113.941 122.17L113.976 122.508H101.331L101.36 122.22C101.4 121.777 101.554 121.149 101.719 120.801C102.261 119.602 103.391 118.686 104.67 118.407C105.147 118.302 110.089 118.297 110.577 118.402Z" fill="url(#paint5_linear_5969_477)"/>
<path d="M14.7854 118.407C14.0638 118.601 13.4667 119.228 13.2975 119.975C13.2676 120.094 13.2427 120.716 13.2427 121.349V122.508H12.1578C11.5607 122.508 10.9386 122.533 10.7794 122.563C10.1225 122.683 9.55518 123.121 9.25659 123.733C9.09734 124.056 9.08739 124.106 9.08739 124.599C9.09237 125.027 9.11227 125.176 9.20683 125.41C9.36607 125.818 9.8239 126.296 10.2519 126.505L10.5803 126.664H87.2173L87.5508 126.505C87.9787 126.301 88.3221 125.963 88.5411 125.52C88.6904 125.216 88.7103 125.117 88.7252 124.713C88.7401 124.38 88.7202 124.186 88.6605 123.992C88.4166 123.245 87.7996 122.707 87.0233 122.563C86.859 122.533 86.237 122.508 85.6448 122.508H84.5599L84.5301 119.895L84.3758 119.567C83.9229 118.616 82.9376 118.143 81.9423 118.407C81.3302 118.566 80.8724 118.949 80.5838 119.562L80.3996 119.945L80.3847 121.224L80.3648 122.508H76.1945V121.498C76.1945 120.945 76.1697 120.333 76.1448 120.144C76.0452 119.437 75.5874 118.83 74.9305 118.521C73.9303 118.054 72.716 118.497 72.2084 119.512L72.0392 119.845L72.0094 122.508H67.7844V121.349C67.7844 119.801 67.6948 119.467 67.1275 118.915C66.1123 117.924 64.4352 118.243 63.7983 119.547L63.6291 119.895L63.5992 122.508H59.3792L59.3493 119.895L59.1901 119.562C58.8069 118.755 58.0157 118.278 57.1597 118.342C56.3137 118.407 55.6618 118.895 55.3334 119.721C55.2338 119.97 55.2239 120.099 55.204 121.249L55.1841 122.508H51.0138V121.448C51.0138 120.871 50.9939 120.264 50.964 120.104C50.8148 119.168 50.0135 118.422 49.083 118.342C48.1275 118.263 47.2417 118.84 46.9282 119.756C46.8436 120.005 46.8336 120.179 46.8336 121.274V122.508H42.6086L42.5937 121.224C42.5738 119.786 42.5439 119.646 42.1657 119.149C41.1505 117.815 39.0206 118.198 38.523 119.811C38.4334 120.089 38.4234 120.273 38.4234 121.319V122.508H34.1935V121.299C34.1935 119.96 34.1586 119.741 33.8899 119.313C33.4122 118.566 32.5065 118.183 31.6605 118.382C31.0782 118.516 30.4811 119.004 30.2322 119.542C30.0531 119.935 30.0133 120.268 30.0133 121.448V122.508H25.8331V121.423C25.8331 120.826 25.8082 120.204 25.7783 120.045C25.5743 118.93 24.4994 118.178 23.3847 118.367C22.693 118.487 22.1455 118.91 21.837 119.562L21.6778 119.895L21.6479 122.508H17.4279L17.398 119.895L17.2587 119.602C16.8058 118.626 15.7906 118.138 14.7854 118.407Z" fill="url(#paint6_linear_5969_477)"/>
<path d="M77.1861 0.939694C76.9864 0.85931 76.755 0.810592 76.5139 0.810592C75.7468 0.810592 75.0892 1.28559 74.8213 1.96034L74.8165 1.97252L49.8364 65.4423C49.756 65.642 49.7097 65.871 49.7097 66.1122C49.7097 67.1231 50.528 67.9415 51.5387 67.9415C52.3059 67.9415 52.9634 67.4665 53.2338 66.7966L53.2386 66.7845L78.2139 3.30982C78.2942 3.11008 78.3405 2.88111 78.3405 2.63995C78.3405 1.87264 77.868 1.21739 77.1983 0.944566L77.1861 0.939694ZM32.2551 34.2238L48.1779 16.0203C48.4555 15.7012 48.626 15.2823 48.626 14.8219C48.626 13.8134 47.8077 12.995 46.7994 12.995C46.2563 12.995 45.7668 13.2337 45.4307 13.6112L45.4283 13.6137L28.3803 33.1033C28.1003 33.4224 27.9298 33.8438 27.9298 34.3066C27.9298 34.8109 28.1344 35.2688 28.4656 35.6001L45.5135 52.6538C45.8447 52.9875 46.3026 53.1922 46.8091 53.1922C47.8198 53.1922 48.6381 52.3737 48.6381 51.3628C48.6381 50.8561 48.4311 50.3957 48.0975 50.0645L32.2551 34.2238ZM99.3216 33.1033L82.2737 13.6161C81.9376 13.2361 81.4481 12.9974 80.905 12.9974C79.8967 12.9974 79.0784 13.8159 79.0784 14.8243C79.0784 15.2847 79.2489 15.7037 79.5266 16.0252L79.5241 16.0228L95.4444 34.2238L79.6045 50.0645C79.2733 50.3957 79.0687 50.8537 79.0687 51.3579C79.0687 52.3688 79.887 53.1873 80.8977 53.1873C81.4018 53.1873 81.8597 52.9827 82.1909 52.6514L99.2388 35.5977C99.5676 35.2664 99.7697 34.8109 99.7697 34.3066C99.7697 33.8438 99.5993 33.4224 99.3168 33.1009L99.3216 33.1033Z" fill="url(#paint7_linear_5969_477)"/>
<path d="M58.155 3.59859C58.3043 4.02167 58.5929 4.39996 58.9612 4.64385C59.5036 5.0072 59.2349 4.99227 64.4203 4.97734L69.0683 4.9624L69.4017 4.80313C69.8297 4.59905 70.1731 4.26059 70.392 3.8176C70.5513 3.48909 70.5612 3.44429 70.5612 2.92167C70.5612 2.40899 70.5513 2.35424 70.402 2.04066C70.1034 1.40853 69.4863 0.955587 68.7846 0.856039C68.3865 0.79631 60.3247 0.79631 59.8768 0.851062C59.1652 0.945633 58.5481 1.38862 58.2396 2.03569C58.1002 2.32438 58.0754 2.43886 58.0604 2.82212C58.0455 3.19045 58.0604 3.32981 58.155 3.59859Z" fill="url(#paint8_linear_5969_477)"/>
<path d="M51.4368 3.59859C51.5861 4.02167 51.8747 4.39996 52.243 4.64385C52.7854 5.0072 52.5167 4.99227 57.7021 4.97734L62.3501 4.9624L62.6835 4.80313C63.1115 4.59905 63.4549 4.26059 63.6738 3.8176C63.8331 3.48909 63.843 3.44429 63.843 2.92167C63.843 2.40899 63.8331 2.35424 63.6838 2.04066C63.3852 1.40853 62.7681 0.955587 62.0664 0.856039C61.6683 0.79631 53.6065 0.79631 53.1586 0.851062C52.447 0.945633 51.8299 1.38862 51.5214 2.03569C51.3821 2.32438 51.3572 2.43886 51.3422 2.82212C51.3273 3.19045 51.3422 3.32981 51.4368 3.59859Z" fill="url(#paint9_linear_5969_477)"/>
<path d="M45.1665 3.59859C45.3158 4.02167 45.6044 4.39996 45.9727 4.64385C46.5151 5.0072 46.2464 4.99227 51.4318 4.97734L56.0798 4.9624L56.4132 4.80313C56.8412 4.59905 57.1846 4.26059 57.4035 3.8176C57.5628 3.48909 57.5727 3.44429 57.5727 2.92167C57.5727 2.40899 57.5628 2.35424 57.4135 2.04066C57.1149 1.40853 56.4978 0.955587 55.7961 0.856039C55.398 0.79631 47.3362 0.79631 46.8883 0.851062C46.1767 0.945633 45.5596 1.38862 45.2511 2.03569C45.1118 2.32438 45.0869 2.43886 45.0719 2.82212C45.057 3.19045 45.0719 3.32981 45.1665 3.59859Z" fill="url(#paint10_linear_5969_477)"/>
<path d="M38.8962 3.59859C39.0455 4.02167 39.3341 4.39996 39.7024 4.64385C40.2448 5.0072 39.9761 4.99227 45.1615 4.97734L49.8095 4.9624L50.1429 4.80313C50.5709 4.59905 50.9143 4.26059 51.1332 3.8176C51.2925 3.48909 51.3024 3.44429 51.3024 2.92167C51.3024 2.40899 51.2925 2.35424 51.1432 2.04066C50.8446 1.40853 50.2275 0.955587 49.5258 0.856039C49.1277 0.79631 41.0659 0.79631 40.618 0.851062C39.9064 0.945633 39.2893 1.38862 38.9808 2.03569C38.8415 2.32438 38.8166 2.43886 38.8016 2.82212C38.7867 3.19045 38.8016 3.32981 38.8962 3.59859Z" fill="url(#paint11_linear_5969_477)"/>
<path d="M30.9463 3.59859C31.0956 4.02167 31.3843 4.39996 31.7525 4.64385C32.295 5.0072 32.0262 4.99227 37.2117 4.97734L41.8597 4.9624L42.1931 4.80313C42.6211 4.59905 42.9644 4.26059 43.1834 3.8176C43.3426 3.48909 43.3526 3.44429 43.3526 2.92167C43.3526 2.40899 43.3426 2.35424 43.1933 2.04066C42.8948 1.40853 42.2777 0.955587 41.576 0.856039C41.1779 0.79631 33.1161 0.79631 32.6682 0.851062C31.9566 0.945633 31.3395 1.38862 31.0309 2.03569C30.8916 2.32438 30.8667 2.43886 30.8518 2.82212C30.8369 3.19045 30.8518 3.32981 30.9463 3.59859Z" fill="url(#paint12_linear_5969_477)"/>
<path d="M26.3929 3.59859C26.5422 4.02167 26.8308 4.39996 27.1991 4.64385C27.7415 5.0072 27.4728 4.99227 32.6582 4.97734L37.3062 4.9624L37.6396 4.80313C38.0676 4.59905 38.411 4.26059 38.63 3.8176C38.7892 3.48909 38.7992 3.44429 38.7992 2.92167C38.7992 2.40899 38.7892 2.35424 38.6399 2.04066C38.3413 1.40853 37.7242 0.955587 37.0226 0.856039C36.6245 0.79631 28.5626 0.79631 28.1148 0.851062C27.4031 0.945633 26.7861 1.38862 26.4775 2.03569C26.3382 2.32438 26.3133 2.43886 26.2984 2.82212C26.2834 3.19045 26.2984 3.32981 26.3929 3.59859Z" fill="url(#paint13_linear_5969_477)"/>
<path d="M20.1599 3.59859C20.3092 4.02167 20.5979 4.39996 20.9661 4.64385C21.5086 5.0072 21.2398 4.99227 26.4253 4.97734L31.0732 4.9624L31.4067 4.80313C31.8346 4.59905 32.178 4.26059 32.397 3.8176C32.5562 3.48909 32.5662 3.44429 32.5662 2.92167C32.5662 2.40899 32.5562 2.35424 32.4069 2.04066C32.1083 1.40853 31.4913 0.955587 30.7896 0.856039C30.3915 0.79631 22.3297 0.79631 21.8818 0.851062C21.1702 0.945633 20.5531 1.38862 20.2445 2.03569C20.1052 2.32438 20.0803 2.43886 20.0654 2.82212C20.0505 3.19045 20.0654 3.32981 20.1599 3.59859Z" fill="url(#paint14_linear_5969_477)"/>
<path d="M15.5319 3.59859C15.6811 4.02167 15.9698 4.39996 16.338 4.64385C16.8805 5.0072 16.6117 4.99227 21.7972 4.97734L26.4452 4.9624L26.7786 4.80313C27.2066 4.59905 27.5499 4.26059 27.7689 3.8176C27.9281 3.48909 27.9381 3.44429 27.9381 2.92167C27.9381 2.40899 27.9281 2.35424 27.7789 2.04066C27.4803 1.40853 26.8632 0.955587 26.1615 0.856039C25.7634 0.79631 17.7016 0.79631 17.2537 0.851062C16.5421 0.945633 15.925 1.38862 15.6165 2.03569C15.4771 2.32438 15.4522 2.43886 15.4373 2.82212C15.4224 3.19045 15.4373 3.32981 15.5319 3.59859Z" fill="url(#paint15_linear_5969_477)"/>
<path d="M82.751 3.59859C82.9003 4.02167 83.1889 4.39996 83.5572 4.64385C84.0996 5.0072 83.8309 4.99227 89.0163 4.97734L93.6643 4.9624L93.9977 4.80313C94.4257 4.59905 94.7691 4.26059 94.988 3.8176C95.1473 3.48909 95.1572 3.44429 95.1572 2.92167C95.1572 2.40899 95.1473 2.35424 94.998 2.04066C94.6994 1.40853 94.0823 0.955587 93.3806 0.856039C92.9825 0.79631 84.9207 0.79631 84.4728 0.851062C83.7612 0.945633 83.1441 1.38862 82.8356 2.03569C82.6962 2.32438 82.6714 2.43886 82.6564 2.82212C82.6415 3.19045 82.6564 3.32981 82.751 3.59859Z" fill="url(#paint16_linear_5969_477)"/>
<path d="M83.4719 3.60417C83.7509 4.0281 84.2901 4.40714 84.9781 4.65152C85.9915 5.0156 85.4895 5.00064 95.1773 4.98567L103.861 4.97071L104.484 4.81111C105.284 4.60663 105.925 4.26749 106.334 3.82361C106.632 3.49445 106.65 3.44956 106.65 2.92588C106.65 2.41218 106.632 2.35732 106.353 2.04312C105.795 1.40972 104.642 0.955869 103.331 0.856122C102.587 0.796273 87.5256 0.796273 86.6888 0.851134C85.3593 0.945895 84.2064 1.38977 83.63 2.03813C83.3697 2.3274 83.3232 2.44211 83.2953 2.82614C83.2674 3.1952 83.2953 3.33485 83.4719 3.60417Z" fill="url(#paint17_linear_5969_477)"/>
<defs>
<linearGradient id="paint0_linear_5969_477" x1="0.652343" y1="0.810584" x2="126.531" y2="126.627" gradientUnits="userSpaceOnUse">
<stop stop-color="#462964"/>
<stop offset="0.5" stop-color="#9C54D5"/>
<stop offset="1" stop-color="#5EE2F0"/>
</linearGradient>
<linearGradient id="paint1_linear_5969_477" x1="0.652343" y1="0.810584" x2="126.531" y2="126.627" gradientUnits="userSpaceOnUse">
<stop stop-color="#462964"/>
<stop offset="0.5" stop-color="#9C54D5"/>
<stop offset="1" stop-color="#5EE2F0"/>
</linearGradient>
<linearGradient id="paint2_linear_5969_477" x1="0.652343" y1="0.810584" x2="126.531" y2="126.627" gradientUnits="userSpaceOnUse">
<stop stop-color="#462964"/>
<stop offset="0.5" stop-color="#9C54D5"/>
<stop offset="1" stop-color="#5EE2F0"/>
</linearGradient>
<linearGradient id="paint3_linear_5969_477" x1="0.652343" y1="0.810584" x2="126.531" y2="126.627" gradientUnits="userSpaceOnUse">
<stop stop-color="#462964"/>
<stop offset="0.5" stop-color="#9C54D5"/>
<stop offset="1" stop-color="#5EE2F0"/>
</linearGradient>
<linearGradient id="paint4_linear_5969_477" x1="0.652343" y1="0.810584" x2="126.531" y2="126.627" gradientUnits="userSpaceOnUse">
<stop stop-color="#462964"/>
<stop offset="0.5" stop-color="#9C54D5"/>
<stop offset="1" stop-color="#5EE2F0"/>
</linearGradient>
<linearGradient id="paint5_linear_5969_477" x1="0.652343" y1="0.810584" x2="126.531" y2="126.627" gradientUnits="userSpaceOnUse">
<stop stop-color="#462964"/>
<stop offset="0.5" stop-color="#9C54D5"/>
<stop offset="1" stop-color="#5EE2F0"/>
</linearGradient>
<linearGradient id="paint6_linear_5969_477" x1="0.652343" y1="0.810584" x2="126.531" y2="126.627" gradientUnits="userSpaceOnUse">
<stop stop-color="#462964"/>
<stop offset="0.5" stop-color="#9C54D5"/>
<stop offset="1" stop-color="#5EE2F0"/>
</linearGradient>
<linearGradient id="paint7_linear_5969_477" x1="0.652343" y1="0.810584" x2="126.531" y2="126.627" gradientUnits="userSpaceOnUse">
<stop stop-color="#462964"/>
<stop offset="0.5" stop-color="#9C54D5"/>
<stop offset="1" stop-color="#5EE2F0"/>
</linearGradient>
<linearGradient id="paint8_linear_5969_477" x1="0.652343" y1="0.810584" x2="126.531" y2="126.627" gradientUnits="userSpaceOnUse">
<stop stop-color="#462964"/>
<stop offset="0.5" stop-color="#9C54D5"/>
<stop offset="1" stop-color="#5EE2F0"/>
</linearGradient>
<linearGradient id="paint9_linear_5969_477" x1="0.652343" y1="0.810584" x2="126.531" y2="126.627" gradientUnits="userSpaceOnUse">
<stop stop-color="#462964"/>
<stop offset="0.5" stop-color="#9C54D5"/>
<stop offset="1" stop-color="#5EE2F0"/>
</linearGradient>
<linearGradient id="paint10_linear_5969_477" x1="0.652343" y1="0.810584" x2="126.531" y2="126.627" gradientUnits="userSpaceOnUse">
<stop stop-color="#462964"/>
<stop offset="0.5" stop-color="#9C54D5"/>
<stop offset="1" stop-color="#5EE2F0"/>
</linearGradient>
<linearGradient id="paint11_linear_5969_477" x1="0.652343" y1="0.810584" x2="126.531" y2="126.627" gradientUnits="userSpaceOnUse">
<stop stop-color="#462964"/>
<stop offset="0.5" stop-color="#9C54D5"/>
<stop offset="1" stop-color="#5EE2F0"/>
</linearGradient>
<linearGradient id="paint12_linear_5969_477" x1="0.652343" y1="0.810584" x2="126.531" y2="126.627" gradientUnits="userSpaceOnUse">
<stop stop-color="#462964"/>
<stop offset="0.5" stop-color="#9C54D5"/>
<stop offset="1" stop-color="#5EE2F0"/>
</linearGradient>
<linearGradient id="paint13_linear_5969_477" x1="0.652343" y1="0.810584" x2="126.531" y2="126.627" gradientUnits="userSpaceOnUse">
<stop stop-color="#462964"/>
<stop offset="0.5" stop-color="#9C54D5"/>
<stop offset="1" stop-color="#5EE2F0"/>
</linearGradient>
<linearGradient id="paint14_linear_5969_477" x1="0.652343" y1="0.810584" x2="126.531" y2="126.627" gradientUnits="userSpaceOnUse">
<stop stop-color="#462964"/>
<stop offset="0.5" stop-color="#9C54D5"/>
<stop offset="1" stop-color="#5EE2F0"/>
</linearGradient>
<linearGradient id="paint15_linear_5969_477" x1="0.652343" y1="0.810584" x2="126.531" y2="126.627" gradientUnits="userSpaceOnUse">
<stop stop-color="#462964"/>
<stop offset="0.5" stop-color="#9C54D5"/>
<stop offset="1" stop-color="#5EE2F0"/>
</linearGradient>
<linearGradient id="paint16_linear_5969_477" x1="0.652343" y1="0.810584" x2="126.531" y2="126.627" gradientUnits="userSpaceOnUse">
<stop stop-color="#462964"/>
<stop offset="0.5" stop-color="#9C54D5"/>
<stop offset="1" stop-color="#5EE2F0"/>
</linearGradient>
<linearGradient id="paint17_linear_5969_477" x1="0.652343" y1="0.810584" x2="126.531" y2="126.627" gradientUnits="userSpaceOnUse">
<stop stop-color="#462964"/>
<stop offset="0.5" stop-color="#9C54D5"/>
<stop offset="1" stop-color="#5EE2F0"/>
</linearGradient>
</defs>
</svg>
